# xmcd
#
# Track frame offsets:
#	150
#	8945
#	25117
#	45660
#	62185
#	72822
#	85640
#	105162
#	121205
#	137730
#	161962
#	175910
#	188940
#	193322
#
# Disc length: 2773 seconds
#
# Revision: 1
# Processed by: cddbd v1.5PL3 Copyright (c) Steve Scherf et al.
# Submitted via: CDex 1.50Beta5
#
DISCID=bb0ad30e
DTITLE=嘉門達夫 - 嘉門達夫全曲集 - 1
DYEAR=1900
DGENRE=
TTITLE0=ヤンキーの兄ちゃんのうた
TTITLE1=ゆけ!ゆけ!川口浩!!
TTITLE2=アホが見るブタのケツ
TTITLE3=あったらコワイセレナーデ2
TTITLE4=業界人間ベム
TTITLE5=涙のモデルはギザギザハート
TTITLE6=トキメキのオバンチュール
TTITLE7=私はバッテラ
TTITLE8=ツッコミドレミファ・ドン
TTITLE9=哀愁の黒乳首
TTITLE10=ペンション
TTITLE11=ユカイなモッコリ
TTITLE12=人が仕事をしてるのに
TTITLE13=街角
EXTD=
EXTT0=
EXTT1=
EXTT2=
EXTT3=
EXTT4=
EXTT5=
EXTT6=
EXTT7=
EXTT8=
EXTT9=
EXTT10=
EXTT11=
EXTT12=
EXTT13=
PLAYORDER=
